<?xml version="1.0" encoding="UTF-8"?>
<svg width="256px" height="257px" viewBox="0 0 256 257" version="1.1" xmlns="http://www.w3.org/2000/svg" xmlns:xlink="http://www.w3.org/1999/xlink">
    <!-- Generator: Sketch 53.2 (72643) - https://sketchapp.com -->
    <title>PVIC_PCF Service Icon_Platform Automation (1)</title>
    <desc>Created with Sketch.</desc>
    <defs>
        <polygon id="path-1" points="0.06 0 256 0 256 255.94 0.06 255.94"></polygon>
    </defs>
    <g id="PVIC_PCF-Service-Icon_Platform-Automation-(1)" stroke="none" stroke-width="1" fill="none" fill-rule="evenodd">
        <g id="Group-4" transform="translate(0.000000, 1.000000)">
            <mask id="mask-2" fill="white">
                <use xlink:href="#path-1"></use>
            </mask>
            <g id="Clip-2"></g>
            <path d="M256,128 C256,198.692 198.692,256 128,256 C57.308,256 0,198.692 0,128 C0,57.307 57.308,0 128,0 C198.692,0 256,57.307 256,128" id="Fill-1" fill="#FFFFFE" mask="url(#mask-2)"></path>
            <path d="M128,0 C57.308,0 0,57.307 0,128 C0,198.692 57.308,256 128,256 C198.692,256 256,198.692 256,128 C256,57.307 198.692,0 128,0 Z M128,8 C160.053,8 190.188,20.482 212.853,43.147 C235.518,65.812 248,95.947 248,128 C248,160.053 235.518,190.188 212.853,212.853 C190.188,235.518 160.053,248 128,248 C95.947,248 65.812,235.518 43.147,212.853 C20.482,190.188 8,160.053 8,128 C8,95.947 20.482,65.812 43.147,43.147 C65.812,20.482 95.947,8 128,8 L128,8 Z" id="Fill-3" fill="#728ca1" mask="url(#mask-2)"></path>
        </g>
        <path d="M63.842,74.415 L57.85,69.115 C74.337,50.478 97.095,39.377 121.931,37.857 C146.763,36.34 170.709,44.58 189.345,61.067 L184.045,67.059 C167.007,51.988 145.12,44.451 122.42,45.842 C99.716,47.232 78.913,57.379 63.842,74.415" id="Fill-5" fill="#314351"></path>
        <path d="M198.395,188.882 C181.915,207.521 159.155,218.621 134.315,220.141 C132.375,220.261 130.435,220.321 128.505,220.321 C105.765,220.321 84.095,212.132 66.915,196.931 L66.905,196.922 C65.995,196.121 65.105,195.292 64.225,194.451 L69.755,188.672 C70.565,189.441 71.385,190.201 72.215,190.931 L72.205,190.941 C89.235,206.011 111.125,213.542 133.825,212.161 C156.535,210.771 177.335,200.621 192.405,183.581 L198.395,188.882" id="Fill-6" fill="#314351"></path>
        <path d="M56.482,84.91 L49.599,80.832 C50.824,78.766 52.147,76.715 53.533,74.737 L60.086,79.325 C58.816,81.138 57.604,83.018 56.482,84.91 Z M50.609,96.82 L43.183,93.844 C44.08,91.607 45.075,89.376 46.142,87.214 L53.317,90.753 C52.34,92.732 51.429,94.773 50.609,96.82 Z M46.635,109.489 L38.84,107.69 C39.381,105.345 40.022,102.988 40.744,100.684 L48.378,103.076 C47.716,105.185 47.13,107.343 46.635,109.489 Z M44.659,122.618 L36.679,122.042 C36.853,119.637 37.123,117.209 37.482,114.824 L45.393,116.015 C45.065,118.196 44.817,120.418 44.659,122.618 Z M36.763,136.559 C36.561,134.156 36.452,131.715 36.439,129.301 L44.439,129.257 C44.451,131.463 44.551,133.695 44.734,135.891 L36.763,136.559 Z M39.108,150.892 C38.533,148.552 38.043,146.156 37.653,143.77 L45.548,142.479 C45.904,144.658 46.351,146.845 46.877,148.982 L39.108,150.892 Z M43.691,164.686 C42.749,162.466 41.885,160.176 41.123,157.88 L48.715,155.358 C49.41,157.452 50.198,159.54 51.056,161.563 L43.691,164.686 Z M50.432,177.572 C49.143,175.531 47.922,173.41 46.8,171.266 L53.889,167.557 C54.91,169.51 56.023,171.443 57.196,173.302 L50.432,177.572 Z M59.172,189.203 C57.566,187.391 56.016,185.495 54.566,183.565 L60.961,178.759 C62.281,180.516 63.693,182.244 65.157,183.892 L59.172,189.203 L59.172,189.203 Z" id="Fill-7" fill="#314351"></path>
        <path d="M196.188,191.496 L190.196,186.195 C221.307,151.027 218.007,97.105 182.839,65.993 L188.14,60.001 C226.612,94.036 230.222,153.024 196.188,191.496" id="Fill-8" fill="#314351"></path>
        <path d="M139.058,63.224 C135.377,62.549 131.594,62.191 127.818,62.158 L127.888,54.158 C132.124,54.195 136.367,54.598 140.5,55.355 L139.058,63.224 Z M160.161,71.039 C156.901,69.141 153.464,67.518 149.947,66.214 L152.728,58.713 C156.675,60.176 160.53,61.997 164.186,64.126 L160.161,71.039 Z M177.47,85.491 C175.012,82.623 172.302,79.946 169.418,77.535 L174.548,71.397 C177.772,74.091 180.798,77.081 183.545,80.285 L177.47,85.491 Z M189.166,104.802 C187.76,101.298 186.059,97.887 184.109,94.666 L190.953,90.523 C193.128,94.116 195.025,97.918 196.591,101.825 L189.166,104.802 Z M194.074,126.866 C193.854,123.086 193.329,119.305 192.512,115.632 L200.323,113.896 C201.231,117.988 201.816,122.196 202.06,126.403 L194.074,126.866 L194.074,126.866 Z" id="Fill-9" fill="#314351"></path>
        <polyline id="Fill-10" fill="#314351" points="128 171.898 84.371 152.684 84.371 105.747 128 124.961 128 171.898"></polyline>
        <path d="M88.371,150.075 L124,165.766 L124,127.571 L88.371,111.88 L88.371,150.075 Z M128,175.898 C127.453,175.898 126.904,175.786 126.388,175.559 L82.758,156.345 C81.307,155.706 80.371,154.27 80.371,152.684 L80.371,105.747 C80.371,104.396 81.053,103.135 82.185,102.397 C83.316,101.658 84.744,101.541 85.983,102.087 L129.612,121.301 C131.063,121.94 132.001,123.376 132.001,124.961 L132.001,171.898 C132.001,173.25 131.318,174.51 130.185,175.249 C129.525,175.679 128.765,175.898 128,175.898 L128,175.898 Z" id="Fill-11" fill="#FFFFFE"></path>
        <polyline id="Fill-12" fill="#314351" points="128 171.898 171.63 152.684 171.63 105.747 128 124.961 128 171.898"></polyline>
        <path d="M132,127.571 L132,165.766 L167.63,150.075 L167.63,111.88 L132,127.571 Z M128.001,175.898 C127.235,175.898 126.475,175.679 125.815,175.249 C124.683,174.51 124,173.25 124,171.898 L124,124.961 C124,123.376 124.937,121.94 126.388,121.301 L170.017,102.087 C171.255,101.543 172.683,101.659 173.815,102.397 C174.947,103.135 175.63,104.396 175.63,105.747 L175.63,152.684 C175.63,154.27 174.693,155.706 173.242,156.345 L129.612,175.559 C129.096,175.786 128.548,175.898 128.001,175.898 L128.001,175.898 Z" id="Fill-13" fill="#FFFFFE"></path>
        <polyline id="Fill-14" fill="#314351" points="84.371 105.747 128 86.102 171.63 105.747 128 124.961 84.371 105.747"></polyline>
        <path d="M94.203,105.707 L128,120.591 L161.798,105.707 L128,90.489 L94.203,105.707 Z M128,128.961 C127.451,128.961 126.901,128.848 126.388,128.622 L82.758,109.408 C81.313,108.771 80.377,107.343 80.371,105.764 C80.364,104.184 81.288,102.749 82.729,102.1 L126.358,82.454 C127.402,81.985 128.598,81.985 129.642,82.454 L173.272,102.1 C174.713,102.749 175.636,104.184 175.63,105.764 C175.623,107.343 174.687,108.771 173.242,109.408 L129.612,128.622 C129.099,128.848 128.549,128.961 128,128.961 L128,128.961 Z" id="Fill-15" fill="#FFFFFE"></path>
    </g>
</svg>